{
	"asset":{
		"generator":"Khronos glTF Blender I/O v4.1.63",
		"version":"2.0"
	},
	"scene":0,
	"scenes":[
		{
			"name":"Scene",
			"nodes":[
				0,
				1,
				2,
				3,
				4
			]
		}
	],
	"nodes":[
		{
			"mesh":0,
			"name":"Can",
			"translation":[
				-0.008730575442314148,
				0.0969729870557785,
				-0.03063393197953701
			]
		},
		{
			"name":"Empty",
			"scale":[
				0.016822444275021553,
				0.016822444275021553,
				0.016822444275021553
			],
			"translation":[
				0,
				0.09947279095649719,
				-0.0017898792866617441
			]
		},
		{
			"mesh":1,
			"name":"Tab",
			"translation":[
				-0.008730575442314148,
				0.0969729870557785,
				-0.03063393197953701
			]
		},
		{
			"mesh":2,
			"name":"Opening",
			"translation":[
				-0.008730575442314148,
				0.0969729870557785,
				-0.03063393197953701
			]
		},
		{
			"name":"Empty.001",
			"rotation":[
				0.70710688829422,
				0,
				0,
				0.7071066498756409
			],
			"scale":[
				0.057475436478853226,
				0.057475436478853226,
				0.057475436478853226
			],
			"translation":[
				-0.0018501188606023788,
				0.060469914227724075,
				0.0045599923469126225
			]
		}
	],
	"animations":[
		{
			"channels":[
				{
					"sampler":0,
					"target":{
						"node":0,
						"path":"translation"
					}
				},
				{
					"sampler":1,
					"target":{
						"node":0,
						"path":"rotation"
					}
				}
			],
			"name":"Crush",
			"samplers":[
				{
					"input":24,
					"interpolation":"LINEAR",
					"output":25
				},
				{
					"input":24,
					"interpolation":"LINEAR",
					"output":26
				}
			]
		},
		{
			"channels":[
				{
					"sampler":0,
					"target":{
						"node":0,
						"path":"weights"
					}
				}
			],
			"name":"KeyAction.002",
			"samplers":[
				{
					"input":27,
					"interpolation":"LINEAR",
					"output":28
				}
			]
		},
		{
			"channels":[
				{
					"sampler":0,
					"target":{
						"node":0,
						"path":"weights"
					}
				}
			],
			"name":"KeyAction.021",
			"samplers":[
				{
					"input":29,
					"interpolation":"LINEAR",
					"output":30
				}
			]
		},
		{
			"channels":[
				{
					"sampler":0,
					"target":{
						"node":0,
						"path":"translation"
					}
				},
				{
					"sampler":1,
					"target":{
						"node":0,
						"path":"rotation"
					}
				},
				{
					"sampler":2,
					"target":{
						"node":0,
						"path":"scale"
					}
				}
			],
			"name":"Nothing",
			"samplers":[
				{
					"input":31,
					"interpolation":"STEP",
					"output":32
				},
				{
					"input":31,
					"interpolation":"STEP",
					"output":33
				},
				{
					"input":31,
					"interpolation":"STEP",
					"output":34
				}
			]
		},
		{
			"channels":[
				{
					"sampler":0,
					"target":{
						"node":2,
						"path":"translation"
					}
				},
				{
					"sampler":1,
					"target":{
						"node":2,
						"path":"rotation"
					}
				}
			],
			"name":"Crush",
			"samplers":[
				{
					"input":24,
					"interpolation":"LINEAR",
					"output":35
				},
				{
					"input":24,
					"interpolation":"LINEAR",
					"output":36
				}
			]
		},
		{
			"channels":[
				{
					"sampler":0,
					"target":{
						"node":2,
						"path":"translation"
					}
				},
				{
					"sampler":1,
					"target":{
						"node":2,
						"path":"rotation"
					}
				},
				{
					"sampler":2,
					"target":{
						"node":2,
						"path":"scale"
					}
				}
			],
			"name":"OpeningAction",
			"samplers":[
				{
					"input":37,
					"interpolation":"STEP",
					"output":38
				},
				{
					"input":39,
					"interpolation":"LINEAR",
					"output":40
				},
				{
					"input":37,
					"interpolation":"STEP",
					"output":41
				}
			]
		},
		{
			"channels":[
				{
					"sampler":0,
					"target":{
						"node":3,
						"path":"translation"
					}
				},
				{
					"sampler":1,
					"target":{
						"node":3,
						"path":"rotation"
					}
				}
			],
			"name":"Crush",
			"samplers":[
				{
					"input":24,
					"interpolation":"LINEAR",
					"output":42
				},
				{
					"input":24,
					"interpolation":"LINEAR",
					"output":43
				}
			]
		},
		{
			"channels":[
				{
					"sampler":0,
					"target":{
						"node":3,
						"path":"translation"
					}
				},
				{
					"sampler":1,
					"target":{
						"node":3,
						"path":"rotation"
					}
				},
				{
					"sampler":2,
					"target":{
						"node":3,
						"path":"scale"
					}
				}
			],
			"name":"OpeningAction",
			"samplers":[
				{
					"input":37,
					"interpolation":"STEP",
					"output":44
				},
				{
					"input":39,
					"interpolation":"LINEAR",
					"output":45
				},
				{
					"input":37,
					"interpolation":"STEP",
					"output":46
				}
			]
		}
	],
	"materials":[
		{
			"doubleSided":true,
			"name":"Label.001",
			"pbrMetallicRoughness":{
				"baseColorFactor":[
					0.800000011920929,
					0.800000011920929,
					0.800000011920929,
					1
				],
				"metallicFactor":0,
				"roughnessFactor":0.5
			}
		},
		{
			"doubleSided":true,
			"name":"Tin.001",
			"pbrMetallicRoughness":{
				"baseColorFactor":[
					0.800000011920929,
					0.800000011920929,
					0.800000011920929,
					1
				],
				"roughnessFactor":0.5
			}
		}
	],
	"meshes":[
		{
			"extras":{
				"targetNames":[
					"Crushed",
					"Flattened"
				]
			},
			"name":"Cylinder",
			"primitives":[
				{
					"attributes":{
						"POSITION":0,
						"NORMAL":1,
						"TEXCOORD_0":2
					},
					"indices":3,
					"material":0,
					"targets":[
						{
							"POSITION":4,
							"NORMAL":5
						},
						{
							"POSITION":6,
							"NORMAL":7
						}
					]
				},
				{
					"attributes":{
						"POSITION":8,
						"NORMAL":9,
						"TEXCOORD_0":10
					},
					"indices":11,
					"material":1,
					"targets":[
						{
							"POSITION":12,
							"NORMAL":13
						},
						{
							"POSITION":14,
							"NORMAL":15
						}
					]
				}
			],
			"weights":[
				0,
				0
			]
		},
		{
			"name":"Circle.004",
			"primitives":[
				{
					"attributes":{
						"POSITION":16,
						"NORMAL":17,
						"TEXCOORD_0":18
					},
					"indices":19,
					"material":1
				}
			]
		},
		{
			"name":"Cylinder.001",
			"primitives":[
				{
					"attributes":{
						"POSITION":20,
						"NORMAL":21,
						"TEXCOORD_0":22
					},
					"indices":23,
					"material":1
				}
			]
		}
	],
	"accessors":[
		{
			"bufferView":0,
			"componentType":5126,
			"count":512,
			"max":[
				0.03350284323096275,
				0.0011886539869010448,
				0.027650652453303337
			],
			"min":[
				-0.03332052752375603,
				-0.11416061222553253,
				-0.03917276859283447
			],
			"type":"VEC3"
		},
		{
			"bufferView":1,
			"componentType":5126,
			"count":512,
			"type":"VEC3"
		},
		{
			"bufferView":2,
			"componentType":5126,
			"count":512,
			"type":"VEC2"
		},
		{
			"bufferView":3,
			"componentType":5123,
			"count":768,
			"type":"SCALAR"
		},
		{
			"bufferView":4,
			"componentType":5126,
			"count":512,
			"max":[
				0.008597783744335175,
				0.004603482782840729,
				0.006764136254787445
			],
			"min":[
				-0.009403299540281296,
				-0.02453327551484108,
				-0.010968180373311043
			],
			"type":"VEC3"
		},
		{
			"bufferView":5,
			"componentType":5126,
			"count":512,
			"type":"VEC3"
		},
		{
			"bufferView":6,
			"componentType":5126,
			"count":512,
			"max":[
				0.0005557388067245483,
				0.10148565471172333,
				0.0011231638491153717
			],
			"min":[
				-0.0017405636608600616,
				-0.004729339387267828,
				-0.0018997155129909515
			],
			"type":"VEC3"
		},
		{
			"bufferView":7,
			"componentType":5126,
			"count":512,
			"type":"VEC3"
		},
		{
			"bufferView":8,
			"componentType":5126,
			"count":4890,
			"max":[
				0.03099444881081581,
				0.0037799030542373657,
				0.025164976716041565
			],
			"min":[
				-0.030778035521507263,
				-0.11800592392683029,
				-0.0366075225174427
			],
			"type":"VEC3"
		},
		{
			"bufferView":9,
			"componentType":5126,
			"count":4890,
			"type":"VEC3"
		},
		{
			"bufferView":10,
			"componentType":5126,
			"count":4890,
			"type":"VEC2"
		},
		{
			"bufferView":11,
			"componentType":5123,
			"count":7446,
			"type":"SCALAR"
		},
		{
			"bufferView":12,
			"componentType":5126,
			"count":4890,
			"max":[
				0.009614208713173866,
				0.015766657888889313,
				0.008258432149887085
			],
			"min":[
				-0.01978272572159767,
				-0.024755403399467468,
				-0.015468343161046505
			],
			"type":"VEC3"
		},
		{
			"bufferView":13,
			"componentType":5126,
			"count":4890,
			"type":"VEC3"
		},
		{
			"componentType":5126,
			"count":4890,
			"max":[
				0.010291660204529762,
				0.10593356192111969,
				0.004106759559363127
			],
			"min":[
				-0.004583494737744331,
				-0.004729339387267828,
				-0.013451632112264633
			],
			"sparse":{
				"count":2227,
				"indices":{
					"bufferView":14,
					"componentType":5123
				},
				"values":{
					"bufferView":15
				}
			},
			"type":"VEC3"
		},
		{
			"bufferView":16,
			"componentType":5126,
			"count":4890,
			"type":"VEC3"
		},
		{
			"bufferView":17,
			"componentType":5126,
			"count":1333,
			"max":[
				0.008531812578439713,
				0.0008712485432624817,
				0.0025772834196686745
			],
			"min":[
				-0.00831538625061512,
				-5.6274235248565674e-05,
				-0.02504340372979641
			],
			"type":"VEC3"
		},
		{
			"bufferView":18,
			"componentType":5126,
			"count":1333,
			"type":"VEC3"
		},
		{
			"bufferView":19,
			"componentType":5126,
			"count":1333,
			"type":"VEC2"
		},
		{
			"bufferView":20,
			"componentType":5123,
			"count":2712,
			"type":"SCALAR"
		},
		{
			"bufferView":21,
			"componentType":5126,
			"count":798,
			"max":[
				0.012282261624932289,
				-7.450580596923828e-09,
				0.012933679856359959
			],
			"min":[
				-0.012068324722349644,
				-0.0005814805626869202,
				-0.002689259359613061
			],
			"type":"VEC3"
		},
		{
			"bufferView":22,
			"componentType":5126,
			"count":798,
			"type":"VEC3"
		},
		{
			"bufferView":23,
			"componentType":5126,
			"count":798,
			"type":"VEC2"
		},
		{
			"bufferView":24,
			"componentType":5123,
			"count":1434,
			"type":"SCALAR"
		},
		{
			"bufferView":25,
			"componentType":5126,
			"count":1,
			"max":[
				0
			],
			"min":[
				0
			],
			"type":"SCALAR"
		},
		{
			"bufferView":26,
			"componentType":5126,
			"count":1,
			"type":"VEC3"
		},
		{
			"bufferView":27,
			"componentType":5126,
			"count":1,
			"type":"VEC4"
		},
		{
			"bufferView":28,
			"componentType":5126,
			"count":9,
			"max":[
				0.3333333333333333
			],
			"min":[
				0
			],
			"type":"SCALAR"
		},
		{
			"bufferView":29,
			"componentType":5126,
			"count":18,
			"type":"SCALAR"
		},
		{
			"bufferView":30,
			"componentType":5126,
			"count":4,
			"max":[
				0.125
			],
			"min":[
				0
			],
			"type":"SCALAR"
		},
		{
			"bufferView":31,
			"componentType":5126,
			"count":8,
			"type":"SCALAR"
		},
		{
			"bufferView":32,
			"componentType":5126,
			"count":2,
			"max":[
				0.08333333333333333
			],
			"min":[
				0
			],
			"type":"SCALAR"
		},
		{
			"bufferView":33,
			"componentType":5126,
			"count":2,
			"type":"VEC3"
		},
		{
			"bufferView":34,
			"componentType":5126,
			"count":2,
			"type":"VEC4"
		},
		{
			"bufferView":35,
			"componentType":5126,
			"count":2,
			"type":"VEC3"
		},
		{
			"bufferView":36,
			"componentType":5126,
			"count":1,
			"type":"VEC3"
		},
		{
			"bufferView":37,
			"componentType":5126,
			"count":1,
			"type":"VEC4"
		},
		{
			"bufferView":38,
			"componentType":5126,
			"count":2,
			"max":[
				1.6666666666666667
			],
			"min":[
				0
			],
			"type":"SCALAR"
		},
		{
			"bufferView":39,
			"componentType":5126,
			"count":2,
			"type":"VEC3"
		},
		{
			"bufferView":40,
			"componentType":5126,
			"count":41,
			"max":[
				1.6666666666666667
			],
			"min":[
				0
			],
			"type":"SCALAR"
		},
		{
			"bufferView":41,
			"componentType":5126,
			"count":41,
			"type":"VEC4"
		},
		{
			"bufferView":42,
			"componentType":5126,
			"count":2,
			"type":"VEC3"
		},
		{
			"bufferView":43,
			"componentType":5126,
			"count":1,
			"type":"VEC3"
		},
		{
			"bufferView":44,
			"componentType":5126,
			"count":1,
			"type":"VEC4"
		},
		{
			"bufferView":45,
			"componentType":5126,
			"count":2,
			"type":"VEC3"
		},
		{
			"bufferView":46,
			"componentType":5126,
			"count":41,
			"type":"VEC4"
		},
		{
			"bufferView":47,
			"componentType":5126,
			"count":2,
			"type":"VEC3"
		}
	],
	"bufferViews":[
		{
			"buffer":0,
			"byteLength":6144,
			"byteOffset":0,
			"target":34962
		},
		{
			"buffer":0,
			"byteLength":6144,
			"byteOffset":6144,
			"target":34962
		},
		{
			"buffer":0,
			"byteLength":4096,
			"byteOffset":12288,
			"target":34962
		},
		{
			"buffer":0,
			"byteLength":1536,
			"byteOffset":16384,
			"target":34963
		},
		{
			"buffer":0,
			"byteLength":6144,
			"byteOffset":17920,
			"target":34962
		},
		{
			"buffer":0,
			"byteLength":6144,
			"byteOffset":24064,
			"target":34962
		},
		{
			"buffer":0,
			"byteLength":6144,
			"byteOffset":30208,
			"target":34962
		},
		{
			"buffer":0,
			"byteLength":6144,
			"byteOffset":36352,
			"target":34962
		},
		{
			"buffer":0,
			"byteLength":58680,
			"byteOffset":42496,
			"target":34962
		},
		{
			"buffer":0,
			"byteLength":58680,
			"byteOffset":101176,
			"target":34962
		},
		{
			"buffer":0,
			"byteLength":39120,
			"byteOffset":159856,
			"target":34962
		},
		{
			"buffer":0,
			"byteLength":14892,
			"byteOffset":198976,
			"target":34963
		},
		{
			"buffer":0,
			"byteLength":58680,
			"byteOffset":213868,
			"target":34962
		},
		{
			"buffer":0,
			"byteLength":58680,
			"byteOffset":272548,
			"target":34962
		},
		{
			"buffer":0,
			"byteLength":4454,
			"byteOffset":331228
		},
		{
			"buffer":0,
			"byteLength":26724,
			"byteOffset":335684
		},
		{
			"buffer":0,
			"byteLength":58680,
			"byteOffset":362408,
			"target":34962
		},
		{
			"buffer":0,
			"byteLength":15996,
			"byteOffset":421088,
			"target":34962
		},
		{
			"buffer":0,
			"byteLength":15996,
			"byteOffset":437084,
			"target":34962
		},
		{
			"buffer":0,
			"byteLength":10664,
			"byteOffset":453080,
			"target":34962
		},
		{
			"buffer":0,
			"byteLength":5424,
			"byteOffset":463744,
			"target":34963
		},
		{
			"buffer":0,
			"byteLength":9576,
			"byteOffset":469168,
			"target":34962
		},
		{
			"buffer":0,
			"byteLength":9576,
			"byteOffset":478744,
			"target":34962
		},
		{
			"buffer":0,
			"byteLength":6384,
			"byteOffset":488320,
			"target":34962
		},
		{
			"buffer":0,
			"byteLength":2868,
			"byteOffset":494704,
			"target":34963
		},
		{
			"buffer":0,
			"byteLength":4,
			"byteOffset":497572
		},
		{
			"buffer":0,
			"byteLength":12,
			"byteOffset":497576
		},
		{
			"buffer":0,
			"byteLength":16,
			"byteOffset":497588
		},
		{
			"buffer":0,
			"byteLength":36,
			"byteOffset":497604
		},
		{
			"buffer":0,
			"byteLength":72,
			"byteOffset":497640
		},
		{
			"buffer":0,
			"byteLength":16,
			"byteOffset":497712
		},
		{
			"buffer":0,
			"byteLength":32,
			"byteOffset":497728
		},
		{
			"buffer":0,
			"byteLength":8,
			"byteOffset":497760
		},
		{
			"buffer":0,
			"byteLength":24,
			"byteOffset":497768
		},
		{
			"buffer":0,
			"byteLength":32,
			"byteOffset":497792
		},
		{
			"buffer":0,
			"byteLength":24,
			"byteOffset":497824
		},
		{
			"buffer":0,
			"byteLength":12,
			"byteOffset":497848
		},
		{
			"buffer":0,
			"byteLength":16,
			"byteOffset":497860
		},
		{
			"buffer":0,
			"byteLength":8,
			"byteOffset":497876
		},
		{
			"buffer":0,
			"byteLength":24,
			"byteOffset":497884
		},
		{
			"buffer":0,
			"byteLength":164,
			"byteOffset":497908
		},
		{
			"buffer":0,
			"byteLength":656,
			"byteOffset":498072
		},
		{
			"buffer":0,
			"byteLength":24,
			"byteOffset":498728
		},
		{
			"buffer":0,
			"byteLength":12,
			"byteOffset":498752
		},
		{
			"buffer":0,
			"byteLength":16,
			"byteOffset":498764
		},
		{
			"buffer":0,
			"byteLength":24,
			"byteOffset":498780
		},
		{
			"buffer":0,
			"byteLength":656,
			"byteOffset":498804
		},
		{
			"buffer":0,
			"byteLength":24,
			"byteOffset":499460
		}
	],
	"buffers":[
		{
			"byteLength":499484,
			"uri":"can.bin"
		}
	]
}
