{
	"asset":{
		"generator":"Khronos glTF Blender I/O v4.4.56",
		"version":"2.0"
	},
	"extensionsUsed":[
		"KHR_materials_clearcoat"
	],
	"scene":0,
	"scenes":[
		{
			"name":"Scene",
			"nodes":[
				0,
				1,
				2,
				3,
				18,
				19,
				20
			]
		}
	],
	"nodes":[
		{
			"name":"Empty",
			"rotation":[
				0.70710688829422,
				0,
				0,
				0.7071066498756409
			],
			"scale":[
				0.05323575809597969,
				0.05323575809597969,
				0.05323575809597969
			],
			"translation":[
				0.0022186124697327614,
				0.028841957449913025,
				0
			]
		},
		{
			"mesh":0,
			"name":"Plane",
			"rotation":[
				0.7071068286895752,
				0,
				0,
				0.7071068286895752
			],
			"scale":[
				0.04749999940395355,
				1,
				0.08799999952316284
			]
		},
		{
			"mesh":1,
			"name":"Cup",
			"scale":[
				0.04434920474886894,
				0.0042500002309679985,
				0.04434920474886894
			],
			"translation":[
				-0.0005619999719783664,
				0.08880599588155746,
				0.00024300001678057015
			]
		},
		{
			"name":"Empty.001",
			"scale":[
				0.020032480359077454,
				0.020032480359077454,
				0.020032480359077454
			],
			"translation":[
				0.0009510534582659602,
				0.07949275523424149,
				0.0008321716450154781
			]
		},
		{
			"name":"Bone.012",
			"rotation":[
				-0.07024921476840973,
				0.04726249352097511,
				0.023743435740470886,
				0.9961262941360474
			],
			"scale":[
				0.9999999403953552,
				1.0000001192092896,
				1.0000001192092896
			],
			"translation":[
				-5.532638169825077e-08,
				0.1865306794643402,
				2.60770320892334e-08
			]
		},
		{
			"children":[
				4
			],
			"name":"Bone.011",
			"rotation":[
				0.006731987465173006,
				0.007112543564289808,
				0.0864478200674057,
				0.9962082505226135
			],
			"scale":[
				1,
				1.0000001192092896,
				1
			],
			"translation":[
				-4.739849828183651e-07,
				0.19917607307434082,
				6.05359673500061e-09
			]
		},
		{
			"children":[
				5
			],
			"name":"Bone.010",
			"rotation":[
				-0.01892833225429058,
				0.0052229068242013454,
				0.07957426458597183,
				0.9966355562210083
			],
			"scale":[
				1,
				0.9999998807907104,
				0.9999999403953552
			],
			"translation":[
				1.0260846465826035e-06,
				0.1862204521894455,
				-2.9802322387695312e-08
			]
		},
		{
			"children":[
				6
			],
			"name":"Bone.009",
			"rotation":[
				0.03479277715086937,
				-0.004193791188299656,
				0.08263809233903885,
				0.9959632754325867
			],
			"scale":[
				1,
				0.9999998807907104,
				0.9999998211860657
			],
			"translation":[
				8.622300811111927e-07,
				0.19512513279914856,
				-2.0489096641540527e-08
			]
		},
		{
			"children":[
				7
			],
			"name":"Bone.008",
			"rotation":[
				-0.019135737791657448,
				0.003971663303673267,
				0.04033719748258591,
				0.9989950060844421
			],
			"scale":[
				0.9999999403953552,
				0.9999998807907104,
				1
			],
			"translation":[
				-8.071074262261391e-07,
				0.20147506892681122,
				1.4901161193847656e-08
			]
		},
		{
			"children":[
				8
			],
			"name":"Bone.007",
			"rotation":[
				0.02390884980559349,
				-0.003919090609997511,
				0.09887845814228058,
				0.9948045611381531
			],
			"scale":[
				1,
				1.0000001192092896,
				1.0000001192092896
			],
			"translation":[
				9.439536370337009e-07,
				0.1881946325302124,
				-2.3283064365386963e-08
			]
		},
		{
			"children":[
				9
			],
			"name":"Bone.006",
			"rotation":[
				-0.008577892556786537,
				0.0007480786880478263,
				0.07244269549846649,
				0.9973354339599609
			],
			"scale":[
				0.9999998807907104,
				0.9999998211860657,
				0.9999997615814209
			],
			"translation":[
				3.3440301194787025e-07,
				0.2003253698348999,
				-1.1175870895385742e-08
			]
		},
		{
			"children":[
				10
			],
			"name":"Bone.005",
			"rotation":[
				-0.017369572073221207,
				0.005259946919977665,
				0.0867452397942543,
				0.9960652589797974
			],
			"scale":[
				0.9999998211860657,
				0.9999998211860657,
				0.9999998211860657
			],
			"translation":[
				4.091416485607624e-07,
				0.19804541766643524,
				7.415656000375748e-08
			]
		},
		{
			"children":[
				11
			],
			"name":"Bone.004",
			"rotation":[
				0.013478121720254421,
				0.0015757273649796844,
				0.10316525399684906,
				0.9945716857910156
			],
			"scale":[
				0.9999999403953552,
				1.0000001192092896,
				0.9999999403953552
			],
			"translation":[
				2.315209712833166e-07,
				0.1887938529253006,
				-9.313225746154785e-09
			]
		},
		{
			"children":[
				12
			],
			"name":"Bone.003",
			"rotation":[
				0.012603157199919224,
				-0.0012302600080147386,
				0.056714173406362534,
				0.9983102083206177
			],
			"scale":[
				1,
				0.9999998807907104,
				0.9999999403953552
			],
			"translation":[
				-2.6433554012328386e-07,
				0.1983683705329895,
				-3.259629011154175e-09
			]
		},
		{
			"children":[
				13
			],
			"name":"Bone.002",
			"rotation":[
				0.0029634141828864813,
				3.2027310226112604e-06,
				0.05552443861961365,
				0.9984529614448547
			],
			"scale":[
				1,
				1.0000001192092896,
				0.9999998211860657
			],
			"translation":[
				-1.1923839338123798e-07,
				0.206325963139534,
				-2.468004822731018e-08
			]
		},
		{
			"children":[
				14
			],
			"name":"Bone.001",
			"rotation":[
				0.0017388167325407267,
				0.005186848342418671,
				0.057897452265024185,
				0.9983075857162476
			],
			"scale":[
				1,
				0.9999997019767761,
				0.9999999403953552
			],
			"translation":[
				-1.891166903078556e-07,
				1.3053722381591797,
				1.6763806343078613e-08
			]
		},
		{
			"children":[
				15
			],
			"name":"Bone",
			"rotation":[
				0.0007342083845287561,
				-0.0015144783537834883,
				0.01211513951420784,
				0.9999251961708069
			],
			"scale":[
				1.0000001192092896,
				1.0000001192092896,
				1.000000238418579
			],
			"translation":[
				0.551563560962677,
				-0.41429200768470764,
				0.3088812530040741
			]
		},
		{
			"mesh":2,
			"name":"Straw",
			"skin":0
		},
		{
			"children":[
				17,
				16
			],
			"name":"Hinge",
			"rotation":[
				0.0005872243782505393,
				-0.019601987674832344,
				0.08409964293241501,
				0.9962644577026367
			],
			"scale":[
				0.011199009604752064,
				0.011199010536074638,
				0.011199011467397213
			],
			"translation":[
				-0.007252648007124662,
				0.09524356573820114,
				-0.003598616225644946
			]
		},
		{
			"mesh":3,
			"name":"New_cover",
			"scale":[
				0.04434920474886894,
				0.0042500002309679985,
				0.04434920474886894
			],
			"translation":[
				-0.0005619999719783664,
				0.08880599588155746,
				0.00024300001678057015
			]
		},
		{
			"mesh":4,
			"name":"Cover",
			"rotation":[
				0,
				-0.5326958298683167,
				0,
				0.8463068008422852
			],
			"scale":[
				0.004722239449620247,
				0.004722239449620247,
				0.004722239449620247
			],
			"translation":[
				-0.0005619991570711136,
				0.08880600333213806,
				0.00024299882352352142
			]
		}
	],
	"materials":[
		{
			"doubleSided":true,
			"name":"Label",
			"pbrMetallicRoughness":{
				"baseColorTexture":{
					"index":0
				},
				"metallicFactor":0,
				"roughnessFactor":0.25999999046325684
			}
		},
		{
			"doubleSided":true,
			"name":"Paper",
			"pbrMetallicRoughness":{
				"baseColorFactor":[
					0.800000011920929,
					0.800000011920929,
					0.800000011920929,
					1
				],
				"metallicFactor":0
			}
		},
		{
			"doubleSided":true,
			"extensions":{
				"KHR_materials_clearcoat":{
					"clearcoatRoughnessFactor":0
				}
			},
			"name":"Straw",
			"pbrMetallicRoughness":{
				"baseColorFactor":[
					0.8001892566680908,
					0,
					0.0006791678024455905,
					1
				],
				"metallicFactor":0,
				"roughnessFactor":0
			}
		},
		{
			"doubleSided":true,
			"name":"Plastic",
			"pbrMetallicRoughness":{
				"baseColorFactor":[
					0.800000011920929,
					0.800000011920929,
					0.800000011920929,
					1
				],
				"metallicFactor":0,
				"roughnessFactor":0
			}
		}
	],
	"meshes":[
		{
			"name":"Plane",
			"primitives":[
				{
					"attributes":{
						"POSITION":0,
						"NORMAL":1,
						"TEXCOORD_0":2
					},
					"indices":3
				}
			]
		},
		{
			"name":"Cylinder",
			"primitives":[
				{
					"attributes":{
						"POSITION":4,
						"NORMAL":5,
						"TEXCOORD_0":6
					},
					"indices":7,
					"material":0
				},
				{
					"attributes":{
						"POSITION":8,
						"NORMAL":9,
						"TEXCOORD_0":10
					},
					"indices":11,
					"material":1
				}
			]
		},
		{
			"name":"Text.006",
			"primitives":[
				{
					"attributes":{
						"POSITION":12,
						"NORMAL":13,
						"TEXCOORD_0":14,
						"JOINTS_0":15,
						"WEIGHTS_0":16
					},
					"indices":17,
					"material":2
				}
			]
		},
		{
			"name":"Cylinder.001",
			"primitives":[
				{
					"attributes":{
						"POSITION":19,
						"NORMAL":20,
						"TEXCOORD_0":21
					},
					"indices":22,
					"material":0
				}
			]
		},
		{
			"name":"Text.003",
			"primitives":[
				{
					"attributes":{
						"POSITION":23,
						"NORMAL":24,
						"TEXCOORD_0":25
					},
					"indices":26,
					"material":3
				}
			]
		}
	],
	"textures":[
		{
			"sampler":0,
			"source":0
		}
	],
	"images":[
		{
			"mimeType":"image/jpeg",
			"name":"MtnDew-label",
			"uri":"MtnDew-label.jpg"
		}
	],
	"skins":[
		{
			"inverseBindMatrices":18,
			"joints":[
				16,
				15,
				14,
				13,
				12,
				11,
				10,
				9,
				8,
				7,
				6,
				5,
				4
			],
			"name":"Hinge"
		}
	],
	"accessors":[
		{
			"bufferView":0,
			"componentType":5126,
			"count":4,
			"max":[
				1,
				0,
				1
			],
			"min":[
				-1,
				0,
				-1
			],
			"type":"VEC3"
		},
		{
			"bufferView":1,
			"componentType":5126,
			"count":4,
			"type":"VEC3"
		},
		{
			"bufferView":2,
			"componentType":5126,
			"count":4,
			"type":"VEC2"
		},
		{
			"bufferView":3,
			"componentType":5123,
			"count":6,
			"type":"SCALAR"
		},
		{
			"bufferView":4,
			"componentType":5126,
			"count":132,
			"max":[
				1.0764319896697998,
				-0.9076766967773438,
				1.0582807064056396
			],
			"min":[
				-1.0510871410369873,
				-39.57876205444336,
				-1.0692393779754639
			],
			"type":"VEC3"
		},
		{
			"bufferView":5,
			"componentType":5126,
			"count":132,
			"type":"VEC3"
		},
		{
			"bufferView":6,
			"componentType":5126,
			"count":132,
			"type":"VEC2"
		},
		{
			"bufferView":7,
			"componentType":5123,
			"count":198,
			"type":"SCALAR"
		},
		{
			"bufferView":8,
			"componentType":5126,
			"count":832,
			"max":[
				1.1094619035720825,
				-0.3261528015136719,
				1.0913105010986328
			],
			"min":[
				-1.0841175317764282,
				-41.5804328918457,
				-1.102268934249878
			],
			"type":"VEC3"
		},
		{
			"bufferView":9,
			"componentType":5126,
			"count":832,
			"type":"VEC3"
		},
		{
			"bufferView":10,
			"componentType":5126,
			"count":832,
			"type":"VEC2"
		},
		{
			"bufferView":11,
			"componentType":5123,
			"count":1404,
			"type":"SCALAR"
		},
		{
			"bufferView":12,
			"componentType":5126,
			"count":3456,
			"max":[
				0.021154165267944336,
				0.17617209255695343,
				-0.007326086983084679
			],
			"min":[
				-0.022158218547701836,
				-0.08628666400909424,
				-0.014694105833768845
			],
			"type":"VEC3"
		},
		{
			"bufferView":13,
			"componentType":5126,
			"count":3456,
			"type":"VEC3"
		},
		{
			"bufferView":14,
			"componentType":5126,
			"count":3456,
			"type":"VEC2"
		},
		{
			"bufferView":15,
			"componentType":5121,
			"count":3456,
			"type":"VEC4"
		},
		{
			"bufferView":16,
			"componentType":5126,
			"count":3456,
			"type":"VEC4"
		},
		{
			"bufferView":17,
			"componentType":5123,
			"count":5376,
			"type":"SCALAR"
		},
		{
			"bufferView":18,
			"componentType":5126,
			"count":13,
			"type":"MAT4"
		},
		{
			"bufferView":19,
			"componentType":5126,
			"count":130,
			"max":[
				0.008692555129528046,
				-24.220430374145508,
				-0.010328312404453754
			],
			"min":[
				0.008692555129528046,
				-24.220430374145508,
				-0.010328312404453754
			],
			"type":"VEC3"
		},
		{
			"bufferView":20,
			"componentType":5126,
			"count":130,
			"type":"VEC3"
		},
		{
			"bufferView":21,
			"componentType":5126,
			"count":130,
			"type":"VEC2"
		},
		{
			"bufferView":22,
			"componentType":5123,
			"count":372,
			"type":"SCALAR"
		},
		{
			"bufferView":23,
			"componentType":5126,
			"count":16401,
			"max":[
				10.459341049194336,
				0.6361726522445679,
				10.324713706970215
			],
			"min":[
				-10.449204444885254,
				-1.486357569694519,
				-10.583830833435059
			],
			"type":"VEC3"
		},
		{
			"bufferView":24,
			"componentType":5126,
			"count":16401,
			"type":"VEC3"
		},
		{
			"bufferView":25,
			"componentType":5126,
			"count":16401,
			"type":"VEC2"
		},
		{
			"bufferView":26,
			"componentType":5123,
			"count":35280,
			"type":"SCALAR"
		}
	],
	"bufferViews":[
		{
			"buffer":0,
			"byteLength":48,
			"byteOffset":0,
			"target":34962
		},
		{
			"buffer":0,
			"byteLength":48,
			"byteOffset":48,
			"target":34962
		},
		{
			"buffer":0,
			"byteLength":32,
			"byteOffset":96,
			"target":34962
		},
		{
			"buffer":0,
			"byteLength":12,
			"byteOffset":128,
			"target":34963
		},
		{
			"buffer":0,
			"byteLength":1584,
			"byteOffset":140,
			"target":34962
		},
		{
			"buffer":0,
			"byteLength":1584,
			"byteOffset":1724,
			"target":34962
		},
		{
			"buffer":0,
			"byteLength":1056,
			"byteOffset":3308,
			"target":34962
		},
		{
			"buffer":0,
			"byteLength":396,
			"byteOffset":4364,
			"target":34963
		},
		{
			"buffer":0,
			"byteLength":9984,
			"byteOffset":4760,
			"target":34962
		},
		{
			"buffer":0,
			"byteLength":9984,
			"byteOffset":14744,
			"target":34962
		},
		{
			"buffer":0,
			"byteLength":6656,
			"byteOffset":24728,
			"target":34962
		},
		{
			"buffer":0,
			"byteLength":2808,
			"byteOffset":31384,
			"target":34963
		},
		{
			"buffer":0,
			"byteLength":41472,
			"byteOffset":34192,
			"target":34962
		},
		{
			"buffer":0,
			"byteLength":41472,
			"byteOffset":75664,
			"target":34962
		},
		{
			"buffer":0,
			"byteLength":27648,
			"byteOffset":117136,
			"target":34962
		},
		{
			"buffer":0,
			"byteLength":13824,
			"byteOffset":144784,
			"target":34962
		},
		{
			"buffer":0,
			"byteLength":55296,
			"byteOffset":158608,
			"target":34962
		},
		{
			"buffer":0,
			"byteLength":10752,
			"byteOffset":213904,
			"target":34963
		},
		{
			"buffer":0,
			"byteLength":832,
			"byteOffset":224656
		},
		{
			"buffer":0,
			"byteLength":1560,
			"byteOffset":225488,
			"target":34962
		},
		{
			"buffer":0,
			"byteLength":1560,
			"byteOffset":227048,
			"target":34962
		},
		{
			"buffer":0,
			"byteLength":1040,
			"byteOffset":228608,
			"target":34962
		},
		{
			"buffer":0,
			"byteLength":744,
			"byteOffset":229648,
			"target":34963
		},
		{
			"buffer":0,
			"byteLength":196812,
			"byteOffset":230392,
			"target":34962
		},
		{
			"buffer":0,
			"byteLength":196812,
			"byteOffset":427204,
			"target":34962
		},
		{
			"buffer":0,
			"byteLength":131208,
			"byteOffset":624016,
			"target":34962
		},
		{
			"buffer":0,
			"byteLength":70560,
			"byteOffset":755224,
			"target":34963
		}
	],
	"samplers":[
		{
			"magFilter":9729,
			"minFilter":9987
		}
	],
	"buffers":[
		{
			"byteLength":825784,
			"uri":"paper-cup.bin"
		}
	]
}
